HIERARCHY
ROOT hip
{
  OFFSET 0.108731 86.0248 -8.17153
  CHANNELS 6 Xposition Yposition Zposition Zrotation Xrotation Yrotation
  JOINT abdomen
  {
    OFFSET 0 -1.186 -1.50178
    CHANNELS 6 Xposition Yposition Zposition Zrotation Xrotation Yrotation
    JOINT abdomen2
    {
      OFFSET 0 9.964 0.21338
      CHANNELS 6 Xposition Yposition Zposition Zrotation Xrotation Yrotation
      JOINT chest
      {
        OFFSET 0 13.134 -3.25729
        CHANNELS 6 Xposition Yposition Zposition Zrotation Xrotation Yrotation
        JOINT neck
        {
          OFFSET 0 20.686 -1.69049
          CHANNELS 6 Xposition Yposition Zposition Zrotation Xrotation Yrotation
          JOINT head
          {
            OFFSET 0 7.23799 -0.12368
            CHANNELS 6 Xposition Yposition Zposition Zrotation Xrotation Yrotation
            End Site
            {
              OFFSET 0 10.017 2.38717
            }
          }
        }
        JOINT lCollar
        {
          OFFSET 1.70688 20.075 5.0056
          CHANNELS 6 Xposition Yposition Zposition Zrotation Xrotation Yrotation
          JOINT lShldr
          {
            OFFSET 13.6458 -0.047012 -4.84902
            CHANNELS 6 Xposition Yposition Zposition Zrotation Xrotation Yrotation
            JOINT lForeArm
            {
              OFFSET 28.3255 -0.975903 2.28883
              CHANNELS 6 Xposition Yposition Zposition Zrotation Xrotation Yrotation
              JOINT lHand
              {
                OFFSET 22.1583 -0.530035 10.8316
                CHANNELS 6 Xposition Yposition Zposition Zrotation Xrotation Yrotation
                JOINT lThumb1
                {
                  OFFSET 0.785995 0.111999 2.58168
                  CHANNELS 6 Xposition Yposition Zposition Zrotation Xrotation Yrotation
                  JOINT lThumb2
                  {
                    OFFSET 0.3601 -0.878005 4.2331
                    CHANNELS 6 Xposition Yposition Zposition Zrotation Xrotation Yrotation
                    End Site
                    {
                      OFFSET 1.81271 -1.21601 2.2227
                    }
                  }
                }
                JOINT lCarpal1
                {
                  OFFSET 0.9571 1.114 1.76948
                  CHANNELS 6 Xposition Yposition Zposition Zrotation Xrotation Yrotation
                  JOINT lIndex1
                  {
                    OFFSET 4.1246 0.487 4.1451
                    CHANNELS 6 Xposition Yposition Zposition Zrotation Xrotation Yrotation
                    JOINT lIndex2
                    {
                      OFFSET 3.40521 -1.45401 2.7682
                      CHANNELS 6 Xposition Yposition Zposition Zrotation Xrotation Yrotation
                      End Site
                      {
                        OFFSET 1.4531 -1.795 1.2713
                      }
                    }
                  }
                  JOINT lMid1
                  {
                    OFFSET 5.6954 0.209991 2.1184
                    CHANNELS 6 Xposition Yposition Zposition Zrotation Xrotation Yrotation
                    JOINT lMid2
                    {
                      OFFSET 3.9766 -1.53999 2.3863
                      CHANNELS 6 Xposition Yposition Zposition Zrotation Xrotation Yrotation
                      End Site
                      {
                        OFFSET 1.4042 -1.926 1.125
                      }
                    }
                  }
                }
                JOINT lCarpal2
                {
                  OFFSET 2.09559 0.65999 -0.38939
                  CHANNELS 6 Xposition Yposition Zposition Zrotation Xrotation Yrotation
                  JOINT lRing1
                  {
                    OFFSET 5.0395 -0.089997 2.49707
                    CHANNELS 6 Xposition Yposition Zposition Zrotation Xrotation Yrotation
                    JOINT lRing2
                    {
                      OFFSET 3.7921 -1.552 1.4806
                      CHANNELS 6 Xposition Yposition Zposition Zrotation Xrotation Yrotation
                      End Site
                      {
                        OFFSET 1.4655 -1.808 0.9609
                      }
                    }
                  }
                  JOINT lPinky1
                  {
                    OFFSET 4.9141 -1.269 0.35915
                    CHANNELS 6 Xposition Yposition Zposition Zrotation Xrotation Yrotation
                    JOINT lPinky2
                    {
                      OFFSET 3.1477 -1.685 0.84623
                      CHANNELS 6 Xposition Yposition Zposition Zrotation Xrotation Yrotation
                      End Site
                      {
                        OFFSET 0.805505 -1.58499 0.79549
                      }
                    }
                  }
                }
              }
            }
          }
        }
        JOINT rCollar
        {
          OFFSET -1.70688 20.075 5.0056
          CHANNELS 6 Xposition Yposition Zposition Zrotation Xrotation Yrotation
          JOINT rShldr
          {
            OFFSET -13.6458 -0.047012 -4.84902
            CHANNELS 6 Xposition Yposition Zposition Zrotation Xrotation Yrotation
            JOINT rForeArm
            {
              OFFSET -28.3255 -0.975903 2.28883
              CHANNELS 6 Xposition Yposition Zposition Zrotation Xrotation Yrotation
              JOINT rHand
              {
                OFFSET -22.1583 -0.530036 10.8316
                CHANNELS 6 Xposition Yposition Zposition Zrotation Xrotation Yrotation
                JOINT rThumb1
                {
                  OFFSET -0.785995 0.111999 2.58168
                  CHANNELS 6 Xposition Yposition Zposition Zrotation Xrotation Yrotation
                  JOINT rThumb2
                  {
                    OFFSET -0.3601 -0.878005 4.2331
                    CHANNELS 6 Xposition Yposition Zposition Zrotation Xrotation Yrotation
                    End Site
                    {
                      OFFSET -1.81271 -1.21601 2.2227
                    }
                  }
                }
                JOINT rCarpal1
                {
                  OFFSET -0.9571 1.114 1.76948
                  CHANNELS 6 Xposition Yposition Zposition Zrotation Xrotation Yrotation
                  JOINT rIndex1
                  {
                    OFFSET -4.1246 0.487 4.1451
                    CHANNELS 6 Xposition Yposition Zposition Zrotation Xrotation Yrotation
                    JOINT rIndex2
                    {
                      OFFSET -3.40521 -1.45401 2.7682
                      CHANNELS 6 Xposition Yposition Zposition Zrotation Xrotation Yrotation
                      End Site
                      {
                        OFFSET -1.4531 -1.795 1.2713
                      }
                    }
                  }
                  JOINT rMid1
                  {
                    OFFSET -5.6954 0.209991 2.1184
                    CHANNELS 6 Xposition Yposition Zposition Zrotation Xrotation Yrotation
                    JOINT rMid2
                    {
                      OFFSET -3.9766 -1.53999 2.3863
                      CHANNELS 6 Xposition Yposition Zposition Zrotation Xrotation Yrotation
                      End Site
                      {
                        OFFSET -1.4042 -1.926 1.125
                      }
                    }
                  }
                }
                JOINT rCarpal2
                {
                  OFFSET -2.09559 0.65999 -0.38939
                  CHANNELS 6 Xposition Yposition Zposition Zrotation Xrotation Yrotation
                  JOINT rRing1
                  {
                    OFFSET -5.0395 -0.089997 2.49707
                    CHANNELS 6 Xposition Yposition Zposition Zrotation Xrotation Yrotation
                    JOINT rRing2
                    {
                      OFFSET -3.7921 -1.552 1.4806
                      CHANNELS 6 Xposition Yposition Zposition Zrotation Xrotation Yrotation
                      End Site
                      {
                        OFFSET -1.4655 -1.808 0.9609
                      }
                    }
                  }
                  JOINT rPinky1
                  {
                    OFFSET -4.9141 -1.269 0.35915
                    CHANNELS 6 Xposition Yposition Zposition Zrotation Xrotation Yrotation
                    JOINT rPinky2
                    {
                      OFFSET -3.1477 -1.685 0.84623
                      CHANNELS 6 Xposition Yposition Zposition Zrotation Xrotation Yrotation
                      End Site
                      {
                        OFFSET -0.805505 -1.58499 0.79549
                      }
                    }
                  }
                }
              }
            }
          }
        }
      }
    }
  }
  JOINT lThigh
  {
    OFFSET 8.367 -8.2066 0.59823
    CHANNELS 6 Xposition Yposition Zposition Zrotation Xrotation Yrotation
    JOINT lShin
    {
      OFFSET 2.19232 -43.463 -0.493181
      CHANNELS 6 Xposition Yposition Zposition Zrotation Xrotation Yrotation
      JOINT lFoot
      {
        OFFSET 0.733257 -45.8593 -2.64513
        CHANNELS 6 Xposition Yposition Zposition Zrotation Xrotation Yrotation
        End Site
        {
          OFFSET 2.6618 -4.26993 12.3931
        }
      }
    }
  }
  JOINT rThigh
  {
    OFFSET -8.367 -8.2066 0.59823
    CHANNELS 6 Xposition Yposition Zposition Zrotation Xrotation Yrotation
    JOINT rShin
    {
      OFFSET -2.19233 -43.463 -0.493108
      CHANNELS 6 Xposition Yposition Zposition Zrotation Xrotation Yrotation
      JOINT rFoot
      {
        OFFSET -0.733256 -45.8593 -2.64514
        CHANNELS 6 Xposition Yposition Zposition Zrotation Xrotation Yrotation
        End Site
        {
          OFFSET -2.6618 -4.26993 12.3931
        }
      }
    }
  }
}
MOTION
Frames:	4
Frame Time:	0.0333333
-1.54125 97.0216 -83.2758 -1.7228 -4.90697 -33.841 -1.42109e-014 -1.186 -1.50178 -2.41326 9.86604 0.600048 0 9.964 0.21338 -1.16782 7.63762 0.424906 0 13.134 -3.25729 -1.18364 7.63015 0.537145 0 20.686 -1.69049 -4.02564 2.9317 14.3421 -7.10543e-015 7.23799 -0.12368 8.56192 -2.88248 9.46319 1.70688 20.075 5.0056 -17.2555 -0.904536 4.88176 13.6458 -0.047012 -4.84902 -25.0435 1.30383 -29.5706 28.3255 -0.975903 2.28883 1.55077 -1.47367 -22.1707 22.1583 -0.530035 10.8316 -4.61584 -0.37776 -6.74619 0.785995 0.111999 2.58168 -6.36111e-015 -1.59028e-015 -0 0.3601 -0.878005 4.2331 -6.36111e-015 1.59028e-015 -0 0.9571 1.114 1.76948 -6.36111e-015 -1.59028e-015 -0 4.1246 0.487 4.1451 -6.36111e-015 1.59028e-015 -0 3.40521 -1.45401 2.7682 -4.41391e-032 -1.59028e-015 -1.59028e-015 5.6954 0.209991 2.1184 -6.36111e-015 1.59028e-015 -0 3.9766 -1.53999 2.3863 -4.41391e-032 -1.59028e-015 -1.59028e-015 2.09559 0.65999 -0.38939 -6.36111e-015 -1.59028e-015 -0 5.0395 -0.089997 2.49707 -6.36111e-015 1.59028e-015 -0 3.7921 -1.552 1.4806 -4.41391e-032 -1.59028e-015 -1.59028e-015 4.9141 -1.269 0.35915 -6.36111e-015 1.59028e-015 -0 3.1477 -1.685 0.84623 -4.41391e-032 -1.59028e-015 -1.59028e-015 -1.70688 20.075 5.0056 21.543 -3.25081 -8.53588 -13.6458 -0.047012 -4.84902 37.7582 5.84345 -14.5332 -28.3255 -0.975903 2.28883 -3.95283 -2.95232 39.4389 -22.1583 -0.530036 10.8316 -14.2122 -21.3902 -12.6672 -0.785995 0.111999 2.58168 -6.36111e-015 0 -3.18055e-015 -0.3601 -0.878005 4.2331 3.18055e-015 0 -0 -0.9571 1.114 1.76948 -6.36111e-015 0 -3.18055e-015 -4.1246 0.487 4.1451 3.18055e-015 0 -0 -3.40521 -1.45401 2.7682 3.18055e-015 6.36111e-015 6.36111e-015 -5.6954 0.209991 2.1184 3.18055e-015 0 -0 -3.9766 -1.53999 2.3863 3.18055e-015 6.36111e-015 6.36111e-015 -2.09559 0.65999 -0.38939 -6.36111e-015 0 -3.18055e-015 -5.0395 -0.089997 2.49707 3.18055e-015 0 -0 -3.7921 -1.552 1.4806 3.18055e-015 6.36111e-015 6.36111e-015 -4.9141 -1.269 0.35915 3.18055e-015 0 -0 -3.1477 -1.685 0.84623 3.18055e-015 6.36111e-015 6.36111e-015 8.367 -8.2066 0.59823 19.5741 -20.6842 14.3375 2.19232 -43.463 -0.493181 -3.02531 38.6446 3.37221 0.733257 -45.8593 -2.64513 -12.0196 -8.05989 3.78431 -8.367 -8.2066 0.59823 -9.87537 -12.4336 -16.706 -2.19233 -43.463 -0.493108 -3.06062 47.9417 0.621037 -0.733256 -45.8593 -2.64514 6.65129 -28.5801 10.1301 
-1.54125 97.0216 -83.2758 -1.7228 -4.90697 -33.841 0 -1.186 -1.50178 -2.41326 9.86604 0.600052 0 9.964 0.21338 -1.16783 7.63762 0.424927 0 13.134 -3.25729 -1.18362 7.63016 0.537148 7.10543e-015 20.686 -1.69049 -4.02564 2.93171 14.3421 3.55271e-015 7.23799 -0.12368 8.56193 -2.8825 9.46319 1.70688 20.075 5.0056 -17.2554 -0.904546 4.88179 13.6458 -0.047012 -4.84902 -23.2849 2.56498 -29.7739 28.3255 -0.975903 2.28883 1.57704 -1.55229 -23.1378 22.1583 -0.530035 10.8316 -4.71708 -2.56064 -5.73117 0.785995 0.111999 2.58168 -6.36111e-015 0 4.77083e-015 0.3601 -0.878005 4.2331 3.18055e-015 3.18055e-015 -1.59028e-015 0.9571 1.114 1.76948 -6.36111e-015 0 4.77083e-015 4.1246 0.487 4.1451 3.18055e-015 3.18055e-015 -1.59028e-015 3.40521 -1.45401 2.7682 -3.18055e-015 -1.59028e-015 3.18055e-015 5.6954 0.209991 2.1184 3.18055e-015 3.18055e-015 -1.59028e-015 3.9766 -1.53999 2.3863 -3.18055e-015 -1.59028e-015 3.18055e-015 2.09559 0.65999 -0.38939 -6.36111e-015 0 4.77083e-015 5.0395 -0.089997 2.49707 3.18055e-015 3.18055e-015 -1.59028e-015 3.7921 -1.552 1.4806 -3.18055e-015 -1.59028e-015 3.18055e-015 4.9141 -1.269 0.35915 3.18055e-015 3.18055e-015 -1.59028e-015 3.1477 -1.685 0.84623 -3.18055e-015 -1.59028e-015 3.18055e-015 -1.70688 20.075 5.0056 21.543 -3.2508 -8.53585 -13.6458 -0.047012 -4.84902 37.6227 5.97863 -14.6181 -28.3255 -0.975903 2.28883 -3.95331 -2.96962 39.6382 -22.1583 -0.530036 10.8316 -13.847 -19.7334 -11.9303 -0.785995 0.111999 2.58168 1.76556e-031 3.18055e-015 -3.18055e-015 -0.3601 -0.878005 4.2331 -3.18055e-015 -9.54166e-015 -3.18055e-015 -0.9571 1.114 1.76948 1.76556e-031 3.18055e-015 -3.18055e-015 -4.1246 0.487 4.1451 -3.18055e-015 -9.54166e-015 -3.18055e-015 -3.40521 -1.45401 2.7682 -6.36111e-015 -6.36111e-015 -0 -5.6954 0.209991 2.1184 -3.18055e-015 -9.54166e-015 -3.18055e-015 -3.9766 -1.53999 2.3863 -6.36111e-015 -6.36111e-015 -0 -2.09559 0.65999 -0.38939 1.76556e-031 3.18055e-015 -3.18055e-015 -5.0395 -0.089997 2.49707 -3.18055e-015 -9.54166e-015 -3.18055e-015 -3.7921 -1.552 1.4806 -6.36111e-015 -6.36111e-015 -0 -4.9141 -1.269 0.35915 -3.18055e-015 -9.54166e-015 -3.18055e-015 -3.1477 -1.685 0.84623 -6.36111e-015 -6.36111e-015 -0 8.367 -8.2066 0.59823 19.5733 -20.682 14.3373 2.19232 -43.463 -0.493181 -3.0249 38.6406 3.37184 0.733257 -45.8593 -2.64513 -12.0197 -8.05821 3.78463 -8.367 -8.2066 0.59823 -9.87541 -12.4333 -16.7061 -2.19233 -43.463 -0.493108 -3.0605 47.9412 0.621044 -0.733256 -45.8593 -2.64514 6.65126 -28.58 10.13 
-1.54204 97.1775 -83.3703 -1.6347 -4.64608 -32.7683 -7.10543e-015 -1.186 -1.50178 -2.23145 9.84923 0.550339 0 9.964 0.21338 -1.1013 7.61922 0.40437 0 13.134 -3.25729 -1.11675 7.61209 0.51735 0 20.686 -1.69049 -3.88317 2.96901 14.1641 0 7.23799 -0.12368 8.55222 -2.95117 9.35916 1.70688 20.075 5.0056 -17.1859 -0.883449 4.71275 13.6458 -0.047012 -4.84902 -22.4172 2.82553 -30.6146 28.3255 -0.975903 2.28883 1.58683 -1.58326 -23.5158 22.1583 -0.530035 10.8316 -4.82517 -3.24102 -4.3552 0.785995 0.111999 2.58168 3.18055e-015 4.77083e-015 -3.18055e-015 0.3601 -0.878005 4.2331 -1.76556e-031 1.59028e-015 6.36111e-015 0.9571 1.114 1.76948 3.18055e-015 4.77083e-015 -3.18055e-015 4.1246 0.487 4.1451 -1.76556e-031 1.59028e-015 6.36111e-015 3.40521 -1.45401 2.7682 3.18055e-015 -4.77083e-015 -0 5.6954 0.209991 2.1184 -1.76556e-031 1.59028e-015 6.36111e-015 3.9766 -1.53999 2.3863 3.18055e-015 -4.77083e-015 -0 2.09559 0.65999 -0.38939 3.18055e-015 4.77083e-015 -3.18055e-015 5.0395 -0.089997 2.49707 -1.76556e-031 1.59028e-015 6.36111e-015 3.7921 -1.552 1.4806 3.18055e-015 -4.77083e-015 -0 4.9141 -1.269 0.35915 -1.76556e-031 1.59028e-015 6.36111e-015 3.1477 -1.685 0.84623 3.18055e-015 -4.77083e-015 -0 -1.70688 20.075 5.0056 21.5093 -3.28791 -8.78348 -13.6458 -0.047012 -4.84902 37.5411 5.91487 -14.7347 -28.3255 -0.975903 2.28883 -3.95187 -2.98997 39.8756 -22.1583 -0.530036 10.8316 -13.4506 -17.7782 -11.1277 -0.785995 0.111999 2.58168 -4.77083e-015 0 -3.18055e-015 -0.3601 -0.878005 4.2331 -4.77083e-015 -3.18055e-015 -3.18055e-015 -0.9571 1.114 1.76948 -4.77083e-015 0 -3.18055e-015 -4.1246 0.487 4.1451 -4.77083e-015 -3.18055e-015 -3.18055e-015 -3.40521 -1.45401 2.7682 -6.36111e-015 -3.18055e-015 3.18055e-015 -5.6954 0.209991 2.1184 -4.77083e-015 -3.18055e-015 -3.18055e-015 -3.9766 -1.53999 2.3863 -6.36111e-015 -3.18055e-015 3.18055e-015 -2.09559 0.65999 -0.38939 -4.77083e-015 0 -3.18055e-015 -5.0395 -0.089997 2.49707 -4.77083e-015 -3.18055e-015 -3.18055e-015 -3.7921 -1.552 1.4806 -6.36111e-015 -3.18055e-015 3.18055e-015 -4.9141 -1.269 0.35915 -4.77083e-015 -3.18055e-015 -3.18055e-015 -3.1477 -1.685 0.84623 -6.36111e-015 -3.18055e-015 3.18055e-015 8.367 -8.2066 0.59823 19.5798 -21.1214 14.4297 2.19232 -43.463 -0.493181 -2.95478 38.1279 3.2868 0.733257 -45.8593 -2.64513 -11.7843 -7.43373 3.06 -8.367 -8.2066 0.59823 -9.43974 -12.3269 -16.728 -2.19233 -43.463 -0.493108 -3.00336 47.4157 0.571622 -0.733256 -45.8593 -2.64514 6.4265 -28.4781 8.93012 
-1.44079 97.2693 -83.3617 -1.54372 -4.62154 -31.1495 0 -1.186 -1.50178 -1.99924 9.96751 0.489626 0 9.964 0.21338 -0.992628 7.71136 0.376058 -7.10543e-015 13.134 -3.25729 -1.00692 7.7048 0.486834 0 20.686 -1.69049 -3.74438 2.8817 13.653 0 7.23799 -0.12368 8.41036 -3.0679 8.95027 1.70688 20.075 5.0056 -18.3762 -0.835597 4.23791 13.6458 -0.047012 -4.84902 -20.0587 2.93634 -31.852 28.3255 -0.975903 2.28883 1.608 -1.61821 -23.9334 22.1583 -0.530035 10.8316 -5.886 -4.06009 -3.33112 0.785995 0.111999 2.58168 -9.54166e-015 4.77083e-015 -0 0.3601 -0.878005 4.2331 2.64834e-031 1.59028e-015 -9.54166e-015 0.9571 1.114 1.76948 -9.54166e-015 4.77083e-015 -0 4.1246 0.487 4.1451 2.64834e-031 1.59028e-015 -9.54166e-015 3.40521 -1.45401 2.7682 -6.36111e-015 1.59028e-015 -0 5.6954 0.209991 2.1184 2.64834e-031 1.59028e-015 -9.54166e-015 3.9766 -1.53999 2.3863 -6.36111e-015 1.59028e-015 -0 2.09559 0.65999 -0.38939 -9.54166e-015 4.77083e-015 -0 5.0395 -0.089997 2.49707 2.64834e-031 1.59028e-015 -9.54166e-015 3.7921 -1.552 1.4806 -6.36111e-015 1.59028e-015 -0 4.9141 -1.269 0.35915 2.64834e-031 1.59028e-015 -9.54166e-015 3.1477 -1.685 0.84623 -6.36111e-015 1.59028e-015 -0 -1.70688 20.075 5.0056 21.4377 -3.35829 -9.25473 -13.6458 -0.047012 -4.84902 37.4135 5.47245 -14.9165 -28.3255 -0.975903 2.28883 -3.95264 -2.99002 39.8755 -22.1583 -0.530036 10.8316 -13.6691 -15.707 -10.5228 -0.785995 0.111999 2.58168 -1.27222e-014 3.18055e-015 -0 -0.3601 -0.878005 4.2331 -3.18055e-015 3.18055e-015 -0 -0.9571 1.114 1.76948 -1.27222e-014 3.18055e-015 -0 -4.1246 0.487 4.1451 -3.18055e-015 3.18055e-015 -0 -3.40521 -1.45401 2.7682 -1.59028e-015 -6.36111e-015 -3.18055e-015 -5.6954 0.209991 2.1184 -3.18055e-015 3.18055e-015 -0 -3.9766 -1.53999 2.3863 -1.59028e-015 -6.36111e-015 -3.18055e-015 -2.09559 0.65999 -0.38939 -1.27222e-014 3.18055e-015 -0 -5.0395 -0.089997 2.49707 -3.18055e-015 3.18055e-015 -0 -3.7921 -1.552 1.4806 -1.59028e-015 -6.36111e-015 -3.18055e-015 -4.9141 -1.269 0.35915 -3.18055e-015 3.18055e-015 -0 -3.1477 -1.685 0.84623 -1.59028e-015 -6.36111e-015 -3.18055e-015 8.367 -8.2066 0.59823 19.408 -22.0063 14.3814 2.19232 -43.463 -0.493181 -2.97717 38.3053 3.30639 0.733257 -45.8593 -2.64513 -11.3739 -6.37653 2.2151 -8.367 -8.2066 0.59823 -9.25178 -11.9151 -16.9692 -2.19233 -43.463 -0.493108 -2.95727 46.9974 0.530548 -0.733256 -45.8593 -2.64514 6.33603 -28.5138 7.52648 
